<?xml version="1.0" encoding="utf-8"?>
<!-- Generator: Adobe Illustrator 16.0.3, SVG Export Plug-In . SVG Version: 6.00 Build 0)  -->
<!DOCTYPE svg PUBLIC "-//W3C//DTD SVG 1.1//EN" "http://www.w3.org/Graphics/SVG/1.1/DTD/svg11.dtd">
<svg version="1.1" id="Layer_1" xmlns="http://www.w3.org/2000/svg" xmlns:xlink="http://www.w3.org/1999/xlink" x="0px" y="0px"
	 width="160px" height="35px" viewBox="0 0 160 35" enable-background="new 0 0 160 35" xml:space="preserve">
<g>
	<g>
		<path fill="#B8202C" d="M23.715,27.963H7.042l-0.008-2.312h15.486c-0.202-0.467-0.394-0.99-0.564-1.468
			c-0.116-0.315-0.223-0.569-0.32-0.899H4.671l0.028,7.007h19.014v2.324H2.35L2.306,20.978H21.08
			c-0.138-0.765-0.228-1.528-0.278-2.308H0v16.323h26.082l-0.017-3.931c-0.369-0.435-0.73-0.873-1.084-1.322
			C24.52,29.156,24.099,28.603,23.715,27.963z"/>
		<path fill="#B8202C" d="M21.047,13.979H2.277L2.236,2.334h21.375v2.313H4.602l0.025,7.003h16.96c0.033-0.108,0.066,0.108,0.099,0
			c0.214-0.671,0.463-1.668,0.746-2.329H6.976L6.967,6.954h16.66c0.268-0.449,0.551-0.943,0.859-1.364
			c0.466-0.645,0.956-1.279,1.479-1.88V0.033H0v16.27h20.791C20.832,15.522,20.915,14.737,21.047,13.979z"/>
		<path fill="#B8202C" d="M41.656,4.647c-7.133,0.097-12.871,5.713-12.845,12.738c0.028,7.019,5.805,12.857,12.938,12.905h8.064
			c-0.59-0.729-1.131-1.525-1.619-2.328h-6.301c-5.851-0.031-10.587-4.831-10.609-10.588c-0.019-5.757,4.683-10.338,10.535-10.42
			h6.268c0.479-0.802,1.006-1.57,1.587-2.307H41.656z"/>
		<path fill="#B8202C" d="M41.802,9.321L41.802,9.321c-4.562,0.066-8.232,3.552-8.215,8.048c0.016,4.486,3.712,8.25,8.275,8.282
			h5.123c-0.303-0.688-0.572-1.533-0.804-2.254c-0.019-0.059-0.039-0.043-0.055-0.113h-4.151c-3.283-0.017-5.943-2.692-5.957-5.925
			c-0.011-3.233,2.633-5.661,5.914-5.709h4.158c0.228-0.775,0.51-1.582,0.829-2.329H41.802z"/>
		<path fill="#B8202C" d="M53.722,0.028h-2.374h-9.681c-9.758,0.129-17.61,7.766-17.574,17.374
			c0.036,9.608,7.946,17.527,17.704,17.591h9.681h2.374l-0.002-1.04c-0.606-0.449-1.184-0.84-1.738-1.338H51.47h-9.533
			c-8.493-0.053-15.376-6.861-15.407-15.224C26.5,9.029,33.333,2.459,41.827,2.334h9.53h0.583c0.567-0.52,1.162-1.013,1.788-1.478
			L53.722,0.028z"/>
	</g>
	<path fill="#6E6F72" d="M80.23,5.119C76.741,1.706,72.422-0.022,67.401,0C62.4,0.017,58.103,1.771,54.636,5.211
		c-3.464,3.438-5.216,7.588-5.199,12.326c0.019,4.772,1.801,8.914,5.287,12.323c3.495,3.411,7.806,5.128,12.81,5.111
		c5.018-0.017,9.32-1.766,12.787-5.204c3.467-3.43,5.218-7.588,5.204-12.36C85.509,12.674,83.724,8.536,80.23,5.119z M67.515,30.055
		c-3.36,0.015-6.315-1.196-8.78-3.608c-2.467-2.409-3.724-5.415-3.737-8.93c-0.014-3.482,1.22-6.483,3.671-8.921
		c2.451-2.431,5.395-3.672,8.755-3.683c3.371-0.011,6.332,1.208,8.802,3.624c2.462,2.421,3.724,5.411,3.737,8.893
		c0.011,3.516-1.223,6.527-3.671,8.953C73.844,28.809,70.889,30.043,67.515,30.055z"/>
	<polygon fill="#6E6F72" points="136.653,0 136.671,5.086 144.732,5.059 144.732,34.972 150.227,34.972 150.227,5.037 
		156.456,5.016 159.888,0 	"/>
	<g>
		<path fill="#6E6F72" d="M105.917,5.037l0.061,18.095c0.006,1.951-0.634,3.553-1.949,4.891c-1.321,1.331-2.825,1.988-4.594,1.999
			c-1.791,0.006-3.309-0.64-4.648-1.966c-1.338-1.327-1.995-2.924-1.995-4.875V0H87.27v23.197c0.014,3.201,1.203,5.99,3.538,8.31
			c2.331,2.312,5.24,3.481,8.645,3.465c3.376-0.01,6.24-1.187,8.525-3.494c1.973-1.977,3.152-4.365,3.52-7.099V12.788L105.917,5.037
			z"/>
		<polygon fill="#6E6F72" points="129.416,0 129.416,25.392 111.371,0 105.896,0 105.902,2.015 111.448,9.766 111.448,9.738 
			126.454,30.726 126.448,30.732 129.487,35 134.963,34.988 134.963,0 		"/>
	</g>
</g>
</svg>
